<mxfile host="app.diagrams.net" modified="2024-04-08T03:10:34.986Z" agent="Mozilla/5.0 (Windows NT 10.0; Win64; x64) AppleWebKit/537.36 (KHTML, like Gecko) Chrome/123.0.0.0 Safari/537.36" etag="umM9mzmrLMJgcthvBD_N" version="24.2.2" type="device">
  <diagram name="第 1 页" id="fbskIURH6n9KEcL45HmW">
    <mxGraphModel dx="1509" dy="821" grid="1" gridSize="10" guides="1" tooltips="1" connect="1" arrows="1" fold="1" page="1" pageScale="1" pageWidth="1169" pageHeight="827" math="0" shadow="0">
      <root>
        <mxCell id="0" />
        <mxCell id="1" parent="0" />
        <mxCell id="t_JkihaS5nAJJNlmCMPS-19" style="edgeStyle=orthogonalEdgeStyle;rounded=0;orthogonalLoop=1;jettySize=auto;html=1;exitX=0.5;exitY=1;exitDx=0;exitDy=0;" edge="1" parent="1" source="t_JkihaS5nAJJNlmCMPS-3" target="t_JkihaS5nAJJNlmCMPS-5">
          <mxGeometry relative="1" as="geometry" />
        </mxCell>
        <mxCell id="t_JkihaS5nAJJNlmCMPS-20" style="edgeStyle=orthogonalEdgeStyle;rounded=0;orthogonalLoop=1;jettySize=auto;html=1;exitX=0.5;exitY=1;exitDx=0;exitDy=0;" edge="1" parent="1" source="t_JkihaS5nAJJNlmCMPS-3" target="t_JkihaS5nAJJNlmCMPS-8">
          <mxGeometry relative="1" as="geometry" />
        </mxCell>
        <mxCell id="t_JkihaS5nAJJNlmCMPS-21" style="edgeStyle=orthogonalEdgeStyle;rounded=0;orthogonalLoop=1;jettySize=auto;html=1;exitX=0.5;exitY=1;exitDx=0;exitDy=0;entryX=0.5;entryY=0;entryDx=0;entryDy=0;" edge="1" parent="1" source="t_JkihaS5nAJJNlmCMPS-3" target="t_JkihaS5nAJJNlmCMPS-9">
          <mxGeometry relative="1" as="geometry" />
        </mxCell>
        <mxCell id="t_JkihaS5nAJJNlmCMPS-23" style="edgeStyle=orthogonalEdgeStyle;rounded=0;orthogonalLoop=1;jettySize=auto;html=1;exitX=0.5;exitY=1;exitDx=0;exitDy=0;entryX=0.5;entryY=0;entryDx=0;entryDy=0;" edge="1" parent="1" source="t_JkihaS5nAJJNlmCMPS-3" target="t_JkihaS5nAJJNlmCMPS-11">
          <mxGeometry relative="1" as="geometry" />
        </mxCell>
        <mxCell id="t_JkihaS5nAJJNlmCMPS-25" style="edgeStyle=orthogonalEdgeStyle;rounded=0;orthogonalLoop=1;jettySize=auto;html=1;exitX=0.5;exitY=1;exitDx=0;exitDy=0;" edge="1" parent="1" source="t_JkihaS5nAJJNlmCMPS-3" target="t_JkihaS5nAJJNlmCMPS-13">
          <mxGeometry relative="1" as="geometry" />
        </mxCell>
        <mxCell id="t_JkihaS5nAJJNlmCMPS-123" style="edgeStyle=orthogonalEdgeStyle;rounded=0;orthogonalLoop=1;jettySize=auto;html=1;exitX=0.5;exitY=0;exitDx=0;exitDy=0;entryX=0.5;entryY=1;entryDx=0;entryDy=0;" edge="1" parent="1" source="t_JkihaS5nAJJNlmCMPS-3" target="t_JkihaS5nAJJNlmCMPS-30">
          <mxGeometry relative="1" as="geometry" />
        </mxCell>
        <mxCell id="t_JkihaS5nAJJNlmCMPS-137" style="edgeStyle=orthogonalEdgeStyle;rounded=0;orthogonalLoop=1;jettySize=auto;html=1;exitX=0;exitY=0.5;exitDx=0;exitDy=0;" edge="1" parent="1" source="t_JkihaS5nAJJNlmCMPS-3" target="t_JkihaS5nAJJNlmCMPS-133">
          <mxGeometry relative="1" as="geometry" />
        </mxCell>
        <mxCell id="t_JkihaS5nAJJNlmCMPS-141" style="edgeStyle=orthogonalEdgeStyle;rounded=0;orthogonalLoop=1;jettySize=auto;html=1;exitX=1;exitY=0.5;exitDx=0;exitDy=0;entryX=0;entryY=0.5;entryDx=0;entryDy=0;" edge="1" parent="1" source="t_JkihaS5nAJJNlmCMPS-3" target="t_JkihaS5nAJJNlmCMPS-106">
          <mxGeometry relative="1" as="geometry" />
        </mxCell>
        <mxCell id="t_JkihaS5nAJJNlmCMPS-3" value="&lt;span style=&quot;font-size: 36px; text-wrap: nowrap;&quot;&gt;山貓茶事網站架構圖&lt;/span&gt;" style="rounded=1;whiteSpace=wrap;html=1;labelPosition=center;verticalLabelPosition=middle;align=center;verticalAlign=middle;" vertex="1" parent="1">
          <mxGeometry x="404.5" y="250" width="360" height="83" as="geometry" />
        </mxCell>
        <mxCell id="t_JkihaS5nAJJNlmCMPS-4" value="&lt;font style=&quot;font-size: 18px;&quot;&gt;網址:http://www.mountaincat.com&lt;/font&gt;" style="text;html=1;align=center;verticalAlign=middle;resizable=0;points=[];autosize=1;strokeColor=none;fillColor=none;fontSize=21;" vertex="1" parent="1">
          <mxGeometry x="439.5" y="300" width="290" height="40" as="geometry" />
        </mxCell>
        <mxCell id="t_JkihaS5nAJJNlmCMPS-56" style="edgeStyle=orthogonalEdgeStyle;rounded=0;orthogonalLoop=1;jettySize=auto;html=1;exitX=0.75;exitY=1;exitDx=0;exitDy=0;entryX=1;entryY=0.5;entryDx=0;entryDy=0;" edge="1" parent="1" source="t_JkihaS5nAJJNlmCMPS-5" target="t_JkihaS5nAJJNlmCMPS-15">
          <mxGeometry relative="1" as="geometry" />
        </mxCell>
        <mxCell id="t_JkihaS5nAJJNlmCMPS-58" style="edgeStyle=orthogonalEdgeStyle;rounded=0;orthogonalLoop=1;jettySize=auto;html=1;exitX=0.75;exitY=1;exitDx=0;exitDy=0;entryX=1;entryY=0.5;entryDx=0;entryDy=0;" edge="1" parent="1" source="t_JkihaS5nAJJNlmCMPS-5" target="t_JkihaS5nAJJNlmCMPS-44">
          <mxGeometry relative="1" as="geometry" />
        </mxCell>
        <mxCell id="t_JkihaS5nAJJNlmCMPS-5" value="首頁" style="rounded=1;whiteSpace=wrap;html=1;fontSize=19;" vertex="1" parent="1">
          <mxGeometry x="98" y="441" width="90" height="40" as="geometry" />
        </mxCell>
        <mxCell id="t_JkihaS5nAJJNlmCMPS-63" style="edgeStyle=orthogonalEdgeStyle;rounded=0;orthogonalLoop=1;jettySize=auto;html=1;exitX=0.75;exitY=1;exitDx=0;exitDy=0;entryX=1;entryY=0.5;entryDx=0;entryDy=0;" edge="1" parent="1" source="t_JkihaS5nAJJNlmCMPS-8" target="t_JkihaS5nAJJNlmCMPS-59">
          <mxGeometry relative="1" as="geometry" />
        </mxCell>
        <mxCell id="t_JkihaS5nAJJNlmCMPS-64" style="edgeStyle=orthogonalEdgeStyle;rounded=0;orthogonalLoop=1;jettySize=auto;html=1;exitX=0.75;exitY=1;exitDx=0;exitDy=0;entryX=1;entryY=0.5;entryDx=0;entryDy=0;" edge="1" parent="1" source="t_JkihaS5nAJJNlmCMPS-8" target="t_JkihaS5nAJJNlmCMPS-60">
          <mxGeometry relative="1" as="geometry" />
        </mxCell>
        <mxCell id="t_JkihaS5nAJJNlmCMPS-65" style="edgeStyle=orthogonalEdgeStyle;rounded=0;orthogonalLoop=1;jettySize=auto;html=1;exitX=0.75;exitY=1;exitDx=0;exitDy=0;entryX=1;entryY=0.5;entryDx=0;entryDy=0;" edge="1" parent="1" source="t_JkihaS5nAJJNlmCMPS-8" target="t_JkihaS5nAJJNlmCMPS-61">
          <mxGeometry relative="1" as="geometry" />
        </mxCell>
        <mxCell id="t_JkihaS5nAJJNlmCMPS-67" style="edgeStyle=orthogonalEdgeStyle;rounded=0;orthogonalLoop=1;jettySize=auto;html=1;exitX=0.75;exitY=1;exitDx=0;exitDy=0;entryX=1;entryY=0.5;entryDx=0;entryDy=0;" edge="1" parent="1" source="t_JkihaS5nAJJNlmCMPS-8" target="t_JkihaS5nAJJNlmCMPS-66">
          <mxGeometry relative="1" as="geometry" />
        </mxCell>
        <mxCell id="t_JkihaS5nAJJNlmCMPS-8" value="最新消息" style="rounded=1;whiteSpace=wrap;html=1;fontSize=19;labelPosition=center;verticalLabelPosition=middle;align=center;verticalAlign=middle;" vertex="1" parent="1">
          <mxGeometry x="251" y="441" width="90" height="40" as="geometry" />
        </mxCell>
        <mxCell id="t_JkihaS5nAJJNlmCMPS-72" style="edgeStyle=orthogonalEdgeStyle;rounded=0;orthogonalLoop=1;jettySize=auto;html=1;exitX=0.75;exitY=1;exitDx=0;exitDy=0;entryX=1;entryY=0.5;entryDx=0;entryDy=0;" edge="1" parent="1" source="t_JkihaS5nAJJNlmCMPS-9" target="t_JkihaS5nAJJNlmCMPS-68">
          <mxGeometry relative="1" as="geometry" />
        </mxCell>
        <mxCell id="t_JkihaS5nAJJNlmCMPS-73" style="edgeStyle=orthogonalEdgeStyle;rounded=0;orthogonalLoop=1;jettySize=auto;html=1;exitX=0.75;exitY=1;exitDx=0;exitDy=0;entryX=1;entryY=0.5;entryDx=0;entryDy=0;" edge="1" parent="1" source="t_JkihaS5nAJJNlmCMPS-9" target="t_JkihaS5nAJJNlmCMPS-69">
          <mxGeometry relative="1" as="geometry" />
        </mxCell>
        <mxCell id="t_JkihaS5nAJJNlmCMPS-74" style="edgeStyle=orthogonalEdgeStyle;rounded=0;orthogonalLoop=1;jettySize=auto;html=1;exitX=0.75;exitY=1;exitDx=0;exitDy=0;entryX=1;entryY=0.5;entryDx=0;entryDy=0;" edge="1" parent="1" source="t_JkihaS5nAJJNlmCMPS-9" target="t_JkihaS5nAJJNlmCMPS-70">
          <mxGeometry relative="1" as="geometry" />
        </mxCell>
        <mxCell id="t_JkihaS5nAJJNlmCMPS-9" value="關於我們" style="rounded=1;whiteSpace=wrap;html=1;fontSize=19;labelPosition=center;verticalLabelPosition=middle;align=center;verticalAlign=middle;" vertex="1" parent="1">
          <mxGeometry x="405" y="441" width="90" height="40" as="geometry" />
        </mxCell>
        <mxCell id="t_JkihaS5nAJJNlmCMPS-79" style="edgeStyle=orthogonalEdgeStyle;rounded=0;orthogonalLoop=1;jettySize=auto;html=1;exitX=0.75;exitY=1;exitDx=0;exitDy=0;entryX=1;entryY=0.5;entryDx=0;entryDy=0;" edge="1" parent="1" source="t_JkihaS5nAJJNlmCMPS-10" target="t_JkihaS5nAJJNlmCMPS-76">
          <mxGeometry relative="1" as="geometry" />
        </mxCell>
        <mxCell id="t_JkihaS5nAJJNlmCMPS-80" style="edgeStyle=orthogonalEdgeStyle;rounded=0;orthogonalLoop=1;jettySize=auto;html=1;exitX=0.75;exitY=1;exitDx=0;exitDy=0;entryX=1;entryY=0.5;entryDx=0;entryDy=0;" edge="1" parent="1" source="t_JkihaS5nAJJNlmCMPS-10" target="t_JkihaS5nAJJNlmCMPS-77">
          <mxGeometry relative="1" as="geometry" />
        </mxCell>
        <mxCell id="t_JkihaS5nAJJNlmCMPS-81" style="edgeStyle=orthogonalEdgeStyle;rounded=0;orthogonalLoop=1;jettySize=auto;html=1;exitX=0.75;exitY=1;exitDx=0;exitDy=0;entryX=1;entryY=0.5;entryDx=0;entryDy=0;" edge="1" parent="1" source="t_JkihaS5nAJJNlmCMPS-10" target="t_JkihaS5nAJJNlmCMPS-78">
          <mxGeometry relative="1" as="geometry" />
        </mxCell>
        <mxCell id="t_JkihaS5nAJJNlmCMPS-122" style="edgeStyle=orthogonalEdgeStyle;rounded=0;orthogonalLoop=1;jettySize=auto;html=1;exitX=0.75;exitY=1;exitDx=0;exitDy=0;entryX=1;entryY=0.5;entryDx=0;entryDy=0;" edge="1" parent="1" source="t_JkihaS5nAJJNlmCMPS-10" target="t_JkihaS5nAJJNlmCMPS-121">
          <mxGeometry relative="1" as="geometry" />
        </mxCell>
        <mxCell id="t_JkihaS5nAJJNlmCMPS-10" value="菜單" style="rounded=1;whiteSpace=wrap;html=1;fontSize=19;labelPosition=center;verticalLabelPosition=middle;align=center;verticalAlign=middle;" vertex="1" parent="1">
          <mxGeometry x="558" y="441" width="90" height="40" as="geometry" />
        </mxCell>
        <mxCell id="t_JkihaS5nAJJNlmCMPS-85" style="edgeStyle=orthogonalEdgeStyle;rounded=0;orthogonalLoop=1;jettySize=auto;html=1;exitX=0.75;exitY=1;exitDx=0;exitDy=0;entryX=1;entryY=0.5;entryDx=0;entryDy=0;" edge="1" parent="1" source="t_JkihaS5nAJJNlmCMPS-11" target="t_JkihaS5nAJJNlmCMPS-82">
          <mxGeometry relative="1" as="geometry" />
        </mxCell>
        <mxCell id="t_JkihaS5nAJJNlmCMPS-86" style="edgeStyle=orthogonalEdgeStyle;rounded=0;orthogonalLoop=1;jettySize=auto;html=1;exitX=0.75;exitY=1;exitDx=0;exitDy=0;entryX=1;entryY=0.5;entryDx=0;entryDy=0;" edge="1" parent="1" source="t_JkihaS5nAJJNlmCMPS-11" target="t_JkihaS5nAJJNlmCMPS-83">
          <mxGeometry relative="1" as="geometry" />
        </mxCell>
        <mxCell id="t_JkihaS5nAJJNlmCMPS-88" style="edgeStyle=orthogonalEdgeStyle;rounded=0;orthogonalLoop=1;jettySize=auto;html=1;exitX=0.75;exitY=1;exitDx=0;exitDy=0;entryX=1;entryY=0.5;entryDx=0;entryDy=0;" edge="1" parent="1" source="t_JkihaS5nAJJNlmCMPS-11" target="t_JkihaS5nAJJNlmCMPS-84">
          <mxGeometry relative="1" as="geometry" />
        </mxCell>
        <mxCell id="t_JkihaS5nAJJNlmCMPS-11" value="門市資訊" style="rounded=1;whiteSpace=wrap;html=1;fontSize=19;labelPosition=center;verticalLabelPosition=middle;align=center;verticalAlign=middle;" vertex="1" parent="1">
          <mxGeometry x="711" y="441" width="90" height="40" as="geometry" />
        </mxCell>
        <mxCell id="t_JkihaS5nAJJNlmCMPS-143" style="edgeStyle=orthogonalEdgeStyle;rounded=0;orthogonalLoop=1;jettySize=auto;html=1;exitX=0.75;exitY=1;exitDx=0;exitDy=0;entryX=1;entryY=0.5;entryDx=0;entryDy=0;" edge="1" parent="1" source="t_JkihaS5nAJJNlmCMPS-12" target="t_JkihaS5nAJJNlmCMPS-90">
          <mxGeometry relative="1" as="geometry" />
        </mxCell>
        <mxCell id="t_JkihaS5nAJJNlmCMPS-144" style="edgeStyle=orthogonalEdgeStyle;rounded=0;orthogonalLoop=1;jettySize=auto;html=1;exitX=0.75;exitY=1;exitDx=0;exitDy=0;entryX=1;entryY=0.5;entryDx=0;entryDy=0;" edge="1" parent="1" source="t_JkihaS5nAJJNlmCMPS-12" target="t_JkihaS5nAJJNlmCMPS-91">
          <mxGeometry relative="1" as="geometry" />
        </mxCell>
        <mxCell id="t_JkihaS5nAJJNlmCMPS-12" value="加入我們" style="rounded=1;whiteSpace=wrap;html=1;fontSize=19;labelPosition=center;verticalLabelPosition=middle;align=center;verticalAlign=middle;" vertex="1" parent="1">
          <mxGeometry x="865" y="441" width="90" height="40" as="geometry" />
        </mxCell>
        <mxCell id="t_JkihaS5nAJJNlmCMPS-98" style="edgeStyle=orthogonalEdgeStyle;rounded=0;orthogonalLoop=1;jettySize=auto;html=1;exitX=0.75;exitY=1;exitDx=0;exitDy=0;entryX=1;entryY=0.5;entryDx=0;entryDy=0;" edge="1" parent="1" source="t_JkihaS5nAJJNlmCMPS-13" target="t_JkihaS5nAJJNlmCMPS-96">
          <mxGeometry relative="1" as="geometry" />
        </mxCell>
        <mxCell id="t_JkihaS5nAJJNlmCMPS-99" style="edgeStyle=orthogonalEdgeStyle;rounded=0;orthogonalLoop=1;jettySize=auto;html=1;exitX=0.75;exitY=1;exitDx=0;exitDy=0;entryX=1;entryY=0.5;entryDx=0;entryDy=0;" edge="1" parent="1" source="t_JkihaS5nAJJNlmCMPS-13" target="t_JkihaS5nAJJNlmCMPS-97">
          <mxGeometry relative="1" as="geometry" />
        </mxCell>
        <mxCell id="t_JkihaS5nAJJNlmCMPS-102" style="edgeStyle=orthogonalEdgeStyle;rounded=0;orthogonalLoop=1;jettySize=auto;html=1;exitX=0.75;exitY=1;exitDx=0;exitDy=0;entryX=1;entryY=0.5;entryDx=0;entryDy=0;" edge="1" parent="1" source="t_JkihaS5nAJJNlmCMPS-13" target="t_JkihaS5nAJJNlmCMPS-100">
          <mxGeometry relative="1" as="geometry" />
        </mxCell>
        <mxCell id="t_JkihaS5nAJJNlmCMPS-103" style="edgeStyle=orthogonalEdgeStyle;rounded=0;orthogonalLoop=1;jettySize=auto;html=1;exitX=0.75;exitY=1;exitDx=0;exitDy=0;entryX=1;entryY=0.5;entryDx=0;entryDy=0;" edge="1" parent="1" source="t_JkihaS5nAJJNlmCMPS-13" target="t_JkihaS5nAJJNlmCMPS-101">
          <mxGeometry relative="1" as="geometry" />
        </mxCell>
        <mxCell id="t_JkihaS5nAJJNlmCMPS-13" value="聯絡我們" style="rounded=1;whiteSpace=wrap;html=1;fontSize=19;labelPosition=center;verticalLabelPosition=middle;align=center;verticalAlign=middle;" vertex="1" parent="1">
          <mxGeometry x="1018" y="441" width="90" height="40" as="geometry" />
        </mxCell>
        <mxCell id="t_JkihaS5nAJJNlmCMPS-15" value="&lt;font style=&quot;font-size: 17px;&quot;&gt;Banner&lt;/font&gt;" style="rounded=1;whiteSpace=wrap;html=1;fontSize=19;" vertex="1" parent="1">
          <mxGeometry x="38" y="501" width="100" height="50" as="geometry" />
        </mxCell>
        <mxCell id="t_JkihaS5nAJJNlmCMPS-17" value="&lt;font style=&quot;font-size: 16px;&quot;&gt;主打商品&lt;/font&gt;" style="rounded=1;whiteSpace=wrap;html=1;fontSize=19;" vertex="1" parent="1">
          <mxGeometry x="38" y="566" width="100" height="50" as="geometry" />
        </mxCell>
        <mxCell id="t_JkihaS5nAJJNlmCMPS-22" style="edgeStyle=orthogonalEdgeStyle;rounded=0;orthogonalLoop=1;jettySize=auto;html=1;exitX=0.5;exitY=1;exitDx=0;exitDy=0;entryX=0.5;entryY=0;entryDx=0;entryDy=0;" edge="1" parent="1" source="t_JkihaS5nAJJNlmCMPS-3" target="t_JkihaS5nAJJNlmCMPS-10">
          <mxGeometry relative="1" as="geometry" />
        </mxCell>
        <mxCell id="t_JkihaS5nAJJNlmCMPS-24" style="edgeStyle=orthogonalEdgeStyle;rounded=0;orthogonalLoop=1;jettySize=auto;html=1;exitX=0.5;exitY=1;exitDx=0;exitDy=0;entryX=0.5;entryY=0;entryDx=0;entryDy=0;" edge="1" parent="1" source="t_JkihaS5nAJJNlmCMPS-3" target="t_JkihaS5nAJJNlmCMPS-12">
          <mxGeometry relative="1" as="geometry">
            <mxPoint x="784.5" y="409" as="targetPoint" />
          </mxGeometry>
        </mxCell>
        <mxCell id="t_JkihaS5nAJJNlmCMPS-145" style="edgeStyle=orthogonalEdgeStyle;rounded=0;orthogonalLoop=1;jettySize=auto;html=1;exitX=0.5;exitY=0;exitDx=0;exitDy=0;entryX=0;entryY=0.5;entryDx=0;entryDy=0;" edge="1" parent="1" source="t_JkihaS5nAJJNlmCMPS-30" target="t_JkihaS5nAJJNlmCMPS-32">
          <mxGeometry relative="1" as="geometry" />
        </mxCell>
        <mxCell id="t_JkihaS5nAJJNlmCMPS-146" style="edgeStyle=orthogonalEdgeStyle;rounded=0;orthogonalLoop=1;jettySize=auto;html=1;exitX=0.5;exitY=0;exitDx=0;exitDy=0;entryX=0;entryY=0.5;entryDx=0;entryDy=0;" edge="1" parent="1" source="t_JkihaS5nAJJNlmCMPS-30" target="t_JkihaS5nAJJNlmCMPS-36">
          <mxGeometry relative="1" as="geometry" />
        </mxCell>
        <mxCell id="t_JkihaS5nAJJNlmCMPS-30" value="浮動按鈕" style="rounded=1;whiteSpace=wrap;html=1;fontSize=19;labelPosition=center;verticalLabelPosition=middle;align=center;verticalAlign=middle;" vertex="1" parent="1">
          <mxGeometry x="534.5" y="165" width="100" height="40" as="geometry" />
        </mxCell>
        <mxCell id="t_JkihaS5nAJJNlmCMPS-32" value="&lt;font style=&quot;font-size: 16px;&quot;&gt;點餐&lt;/font&gt;" style="rounded=1;whiteSpace=wrap;html=1;fontSize=19;labelPosition=center;verticalLabelPosition=middle;align=center;verticalAlign=middle;" vertex="1" parent="1">
          <mxGeometry x="630" y="54" width="90" height="40" as="geometry" />
        </mxCell>
        <mxCell id="t_JkihaS5nAJJNlmCMPS-36" value="&lt;font style=&quot;font-size: 16px;&quot;&gt;查訂單&lt;/font&gt;" style="rounded=1;whiteSpace=wrap;html=1;fontSize=19;labelPosition=center;verticalLabelPosition=middle;align=center;verticalAlign=middle;" vertex="1" parent="1">
          <mxGeometry x="630" y="104" width="90" height="40" as="geometry" />
        </mxCell>
        <mxCell id="t_JkihaS5nAJJNlmCMPS-44" value="&lt;font style=&quot;font-size: 16px;&quot;&gt;最新消息&lt;/font&gt;" style="rounded=1;whiteSpace=wrap;html=1;fontSize=19;" vertex="1" parent="1">
          <mxGeometry x="38" y="630" width="100" height="50" as="geometry" />
        </mxCell>
        <mxCell id="t_JkihaS5nAJJNlmCMPS-57" style="edgeStyle=orthogonalEdgeStyle;rounded=0;orthogonalLoop=1;jettySize=auto;html=1;exitX=0.75;exitY=1;exitDx=0;exitDy=0;entryX=0.994;entryY=0.629;entryDx=0;entryDy=0;entryPerimeter=0;" edge="1" parent="1" source="t_JkihaS5nAJJNlmCMPS-5" target="t_JkihaS5nAJJNlmCMPS-17">
          <mxGeometry relative="1" as="geometry" />
        </mxCell>
        <mxCell id="t_JkihaS5nAJJNlmCMPS-59" value="&lt;font style=&quot;font-size: 17px;&quot;&gt;全部&lt;/font&gt;" style="rounded=1;whiteSpace=wrap;html=1;fontSize=19;" vertex="1" parent="1">
          <mxGeometry x="178" y="501" width="100" height="50" as="geometry" />
        </mxCell>
        <mxCell id="t_JkihaS5nAJJNlmCMPS-60" value="&lt;font style=&quot;font-size: 16px;&quot;&gt;開幕&lt;/font&gt;" style="rounded=1;whiteSpace=wrap;html=1;fontSize=19;" vertex="1" parent="1">
          <mxGeometry x="178" y="567" width="100" height="50" as="geometry" />
        </mxCell>
        <mxCell id="t_JkihaS5nAJJNlmCMPS-61" value="&lt;span style=&quot;font-size: 16px;&quot;&gt;活動&lt;/span&gt;" style="rounded=1;whiteSpace=wrap;html=1;fontSize=19;" vertex="1" parent="1">
          <mxGeometry x="178" y="634" width="100" height="50" as="geometry" />
        </mxCell>
        <mxCell id="t_JkihaS5nAJJNlmCMPS-66" value="&lt;font style=&quot;font-size: 16px;&quot;&gt;新品上市&lt;/font&gt;" style="rounded=1;whiteSpace=wrap;html=1;fontSize=19;" vertex="1" parent="1">
          <mxGeometry x="178" y="700" width="100" height="50" as="geometry" />
        </mxCell>
        <mxCell id="t_JkihaS5nAJJNlmCMPS-68" value="&lt;font style=&quot;font-size: 17px;&quot;&gt;品牌故事&lt;/font&gt;" style="rounded=1;whiteSpace=wrap;html=1;fontSize=19;" vertex="1" parent="1">
          <mxGeometry x="337.5" y="501" width="100" height="50" as="geometry" />
        </mxCell>
        <mxCell id="t_JkihaS5nAJJNlmCMPS-69" value="&lt;font style=&quot;font-size: 16px;&quot;&gt;歷程介紹&lt;/font&gt;" style="rounded=1;whiteSpace=wrap;html=1;fontSize=19;" vertex="1" parent="1">
          <mxGeometry x="337.5" y="566" width="100" height="50" as="geometry" />
        </mxCell>
        <mxCell id="t_JkihaS5nAJJNlmCMPS-70" value="&lt;span style=&quot;font-size: 16px;&quot;&gt;用心做茶&lt;/span&gt;" style="rounded=1;whiteSpace=wrap;html=1;fontSize=19;" vertex="1" parent="1">
          <mxGeometry x="337.5" y="630" width="100" height="50" as="geometry" />
        </mxCell>
        <mxCell id="t_JkihaS5nAJJNlmCMPS-76" value="&lt;font style=&quot;font-size: 17px;&quot;&gt;地區&lt;/font&gt;" style="rounded=1;whiteSpace=wrap;html=1;fontSize=19;" vertex="1" parent="1">
          <mxGeometry x="502" y="501" width="100" height="50" as="geometry" />
        </mxCell>
        <mxCell id="t_JkihaS5nAJJNlmCMPS-77" value="&lt;font style=&quot;font-size: 16px;&quot;&gt;品項&lt;/font&gt;" style="rounded=1;whiteSpace=wrap;html=1;fontSize=19;" vertex="1" parent="1">
          <mxGeometry x="502" y="567" width="100" height="50" as="geometry" />
        </mxCell>
        <mxCell id="t_JkihaS5nAJJNlmCMPS-78" value="&lt;span style=&quot;font-size: 16px;&quot;&gt;熱量表&lt;/span&gt;" style="rounded=1;whiteSpace=wrap;html=1;fontSize=19;" vertex="1" parent="1">
          <mxGeometry x="503" y="634" width="100" height="50" as="geometry" />
        </mxCell>
        <mxCell id="t_JkihaS5nAJJNlmCMPS-82" value="&lt;font style=&quot;font-size: 17px;&quot;&gt;地區&lt;/font&gt;" style="rounded=1;whiteSpace=wrap;html=1;fontSize=19;" vertex="1" parent="1">
          <mxGeometry x="647" y="501" width="100" height="50" as="geometry" />
        </mxCell>
        <mxCell id="t_JkihaS5nAJJNlmCMPS-83" value="&lt;font style=&quot;font-size: 16px;&quot;&gt;資訊&lt;/font&gt;" style="rounded=1;whiteSpace=wrap;html=1;fontSize=19;" vertex="1" parent="1">
          <mxGeometry x="647" y="566" width="100" height="50" as="geometry" />
        </mxCell>
        <mxCell id="t_JkihaS5nAJJNlmCMPS-84" value="&lt;span style=&quot;font-size: 16px;&quot;&gt;地圖&lt;/span&gt;" style="rounded=1;whiteSpace=wrap;html=1;fontSize=19;" vertex="1" parent="1">
          <mxGeometry x="648" y="630" width="100" height="50" as="geometry" />
        </mxCell>
        <mxCell id="t_JkihaS5nAJJNlmCMPS-90" value="&lt;font style=&quot;font-size: 17px;&quot;&gt;加盟諮詢&lt;/font&gt;" style="rounded=1;whiteSpace=wrap;html=1;fontSize=19;" vertex="1" parent="1">
          <mxGeometry x="812" y="501" width="100" height="50" as="geometry" />
        </mxCell>
        <mxCell id="t_JkihaS5nAJJNlmCMPS-91" value="&lt;font style=&quot;font-size: 17px;&quot;&gt;招募人才&lt;/font&gt;" style="rounded=1;whiteSpace=wrap;html=1;fontSize=19;" vertex="1" parent="1">
          <mxGeometry x="813" y="567" width="100" height="50" as="geometry" />
        </mxCell>
        <mxCell id="t_JkihaS5nAJJNlmCMPS-96" value="&lt;font style=&quot;font-size: 17px;&quot;&gt;異業合作&lt;/font&gt;" style="rounded=1;whiteSpace=wrap;html=1;fontSize=19;" vertex="1" parent="1">
          <mxGeometry x="963" y="501" width="100" height="50" as="geometry" />
        </mxCell>
        <mxCell id="t_JkihaS5nAJJNlmCMPS-97" value="&lt;font style=&quot;font-size: 17px;&quot;&gt;客訴專區&lt;/font&gt;" style="rounded=1;whiteSpace=wrap;html=1;fontSize=19;" vertex="1" parent="1">
          <mxGeometry x="963" y="567" width="100" height="50" as="geometry" />
        </mxCell>
        <mxCell id="t_JkihaS5nAJJNlmCMPS-100" value="&lt;font style=&quot;font-size: 17px;&quot;&gt;顧客建議&lt;/font&gt;" style="rounded=1;whiteSpace=wrap;html=1;fontSize=19;" vertex="1" parent="1">
          <mxGeometry x="963" y="634" width="100" height="50" as="geometry" />
        </mxCell>
        <mxCell id="t_JkihaS5nAJJNlmCMPS-101" value="&lt;font style=&quot;font-size: 17px;&quot;&gt;加盟事宜&lt;/font&gt;" style="rounded=1;whiteSpace=wrap;html=1;fontSize=19;" vertex="1" parent="1">
          <mxGeometry x="963" y="700" width="100" height="50" as="geometry" />
        </mxCell>
        <mxCell id="t_JkihaS5nAJJNlmCMPS-138" style="edgeStyle=orthogonalEdgeStyle;rounded=0;orthogonalLoop=1;jettySize=auto;html=1;exitX=1;exitY=0.5;exitDx=0;exitDy=0;" edge="1" parent="1" source="t_JkihaS5nAJJNlmCMPS-106" target="t_JkihaS5nAJJNlmCMPS-110">
          <mxGeometry relative="1" as="geometry" />
        </mxCell>
        <mxCell id="t_JkihaS5nAJJNlmCMPS-139" style="edgeStyle=orthogonalEdgeStyle;rounded=0;orthogonalLoop=1;jettySize=auto;html=1;exitX=1;exitY=0.5;exitDx=0;exitDy=0;entryX=0;entryY=0.5;entryDx=0;entryDy=0;" edge="1" parent="1" source="t_JkihaS5nAJJNlmCMPS-106" target="t_JkihaS5nAJJNlmCMPS-113">
          <mxGeometry relative="1" as="geometry" />
        </mxCell>
        <mxCell id="t_JkihaS5nAJJNlmCMPS-140" style="edgeStyle=orthogonalEdgeStyle;rounded=0;orthogonalLoop=1;jettySize=auto;html=1;exitX=1;exitY=0.5;exitDx=0;exitDy=0;entryX=0;entryY=0.5;entryDx=0;entryDy=0;" edge="1" parent="1" source="t_JkihaS5nAJJNlmCMPS-106" target="t_JkihaS5nAJJNlmCMPS-111">
          <mxGeometry relative="1" as="geometry" />
        </mxCell>
        <mxCell id="t_JkihaS5nAJJNlmCMPS-106" value="Footer" style="rounded=1;whiteSpace=wrap;html=1;fontSize=19;labelPosition=center;verticalLabelPosition=middle;align=center;verticalAlign=middle;" vertex="1" parent="1">
          <mxGeometry x="820" y="271.5" width="105" height="41" as="geometry" />
        </mxCell>
        <mxCell id="t_JkihaS5nAJJNlmCMPS-110" value="&lt;span style=&quot;font-size: 16px;&quot;&gt;網站導覽&lt;/span&gt;" style="rounded=1;whiteSpace=wrap;html=1;fontSize=19;labelPosition=center;verticalLabelPosition=middle;align=center;verticalAlign=middle;" vertex="1" parent="1">
          <mxGeometry x="970" y="272" width="90" height="40" as="geometry" />
        </mxCell>
        <mxCell id="t_JkihaS5nAJJNlmCMPS-111" value="&lt;font style=&quot;font-size: 16px;&quot;&gt;社群平台&lt;/font&gt;" style="rounded=1;whiteSpace=wrap;html=1;fontSize=19;labelPosition=center;verticalLabelPosition=middle;align=center;verticalAlign=middle;" vertex="1" parent="1">
          <mxGeometry x="970" y="327" width="90" height="40" as="geometry" />
        </mxCell>
        <mxCell id="t_JkihaS5nAJJNlmCMPS-113" value="&lt;span style=&quot;font-size: 16px;&quot;&gt;網站導覽&lt;/span&gt;" style="rounded=1;whiteSpace=wrap;html=1;fontSize=19;labelPosition=center;verticalLabelPosition=middle;align=center;verticalAlign=middle;" vertex="1" parent="1">
          <mxGeometry x="970" y="214" width="90" height="40" as="geometry" />
        </mxCell>
        <mxCell id="t_JkihaS5nAJJNlmCMPS-121" value="&lt;span style=&quot;font-size: 16px;&quot;&gt;菜單下載&lt;/span&gt;" style="rounded=1;whiteSpace=wrap;html=1;fontSize=19;" vertex="1" parent="1">
          <mxGeometry x="502" y="700" width="100" height="50" as="geometry" />
        </mxCell>
        <mxCell id="t_JkihaS5nAJJNlmCMPS-130" style="edgeStyle=orthogonalEdgeStyle;rounded=0;orthogonalLoop=1;jettySize=auto;html=1;exitX=0;exitY=0.5;exitDx=0;exitDy=0;entryX=1;entryY=0.5;entryDx=0;entryDy=0;" edge="1" source="t_JkihaS5nAJJNlmCMPS-133" target="t_JkihaS5nAJJNlmCMPS-136" parent="1">
          <mxGeometry relative="1" as="geometry" />
        </mxCell>
        <mxCell id="t_JkihaS5nAJJNlmCMPS-131" style="edgeStyle=orthogonalEdgeStyle;rounded=0;orthogonalLoop=1;jettySize=auto;html=1;exitX=0;exitY=0.5;exitDx=0;exitDy=0;entryX=1;entryY=0.5;entryDx=0;entryDy=0;" edge="1" source="t_JkihaS5nAJJNlmCMPS-133" target="t_JkihaS5nAJJNlmCMPS-135" parent="1">
          <mxGeometry relative="1" as="geometry" />
        </mxCell>
        <mxCell id="t_JkihaS5nAJJNlmCMPS-132" style="edgeStyle=orthogonalEdgeStyle;rounded=0;orthogonalLoop=1;jettySize=auto;html=1;exitX=0;exitY=0.5;exitDx=0;exitDy=0;entryX=1;entryY=0.5;entryDx=0;entryDy=0;" edge="1" source="t_JkihaS5nAJJNlmCMPS-133" target="t_JkihaS5nAJJNlmCMPS-134" parent="1">
          <mxGeometry relative="1" as="geometry" />
        </mxCell>
        <mxCell id="t_JkihaS5nAJJNlmCMPS-133" value="Header" style="rounded=1;whiteSpace=wrap;html=1;fontSize=19;labelPosition=center;verticalLabelPosition=middle;align=center;verticalAlign=middle;" vertex="1" parent="1">
          <mxGeometry x="240" y="272" width="100" height="40" as="geometry" />
        </mxCell>
        <mxCell id="t_JkihaS5nAJJNlmCMPS-134" value="&lt;span style=&quot;font-size: 16px;&quot;&gt;選單&lt;/span&gt;" style="rounded=1;whiteSpace=wrap;html=1;fontSize=19;labelPosition=center;verticalLabelPosition=middle;align=center;verticalAlign=middle;" vertex="1" parent="1">
          <mxGeometry x="98" y="272" width="90" height="40" as="geometry" />
        </mxCell>
        <mxCell id="t_JkihaS5nAJJNlmCMPS-135" value="&lt;font style=&quot;font-size: 16px;&quot;&gt;語言切換&lt;/font&gt;" style="rounded=1;whiteSpace=wrap;html=1;fontSize=19;labelPosition=center;verticalLabelPosition=middle;align=center;verticalAlign=middle;" vertex="1" parent="1">
          <mxGeometry x="98" y="327" width="90" height="40" as="geometry" />
        </mxCell>
        <mxCell id="t_JkihaS5nAJJNlmCMPS-136" value="&lt;span style=&quot;font-size: 16px;&quot;&gt;Logo&lt;/span&gt;" style="rounded=1;whiteSpace=wrap;html=1;fontSize=19;labelPosition=center;verticalLabelPosition=middle;align=center;verticalAlign=middle;" vertex="1" parent="1">
          <mxGeometry x="98" y="214" width="90" height="40" as="geometry" />
        </mxCell>
      </root>
    </mxGraphModel>
  </diagram>
</mxfile>
